<?xml version="1.0" encoding="utf-8"?>
<!-- Generator: Adobe Illustrator 23.0.4, SVG Export Plug-In . SVG Version: 6.00 Build 0)  -->
<svg version="1.1" id="Layer_1" xmlns="http://www.w3.org/2000/svg" xmlns:xlink="http://www.w3.org/1999/xlink" x="0px" y="0px"
	 viewBox="0 0 158.24 40" style="enable-background:new 0 0 158.24 40;" xml:space="preserve">
<style type="text/css">
	.st0{fill:#231815;}
	.st1{fill:#FFFFFF;}
	.st2{fill:url(#SVGID_1_);}
	.st3{fill:#E9A61D;}
	.st4{fill:#666666;}
	.st5{fill:#3E3A39;}
	.st6{fill:#C30D23;}
</style>
<g>
	<g>
		<path class="st0" d="M35.71,25.54c-0.27-1.47-1.17-4.42-2.45-5.79c-1.59-1.7-4.38-2.75-4.38-2.75c3.62-7.08-4.62-15.28-8.9-15.28
			S7.45,9.92,11.08,17c0,0-2.79,1.04-4.38,2.75c-1.29,1.38-2.19,4.32-2.45,5.79c-0.48,2.62-0.29,9.3-0.29,9.3H36
			C36,34.84,36.19,28.16,35.71,25.54z"/>
	</g>
	<path class="st1" d="M19.98,10.84c0,0-7.69-0.11-7.69,2.49c0,3.56,7.69,5.14,7.69,5.14s7.69-1.58,7.69-5.14
		C27.67,10.73,19.98,10.84,19.98,10.84z"/>
	<linearGradient id="SVGID_1_" gradientUnits="userSpaceOnUse" x1="19.9779" y1="18.1342" x2="19.9779" y2="31.7938">
		<stop  offset="0" style="stop-color:#FFFFFF;stop-opacity:0"/>
		<stop  offset="1" style="stop-color:#E9A61D"/>
	</linearGradient>
	<polygon class="st2" points="9.35,18.13 30.61,18.13 26.45,31.79 13.2,31.79 	"/>
	<g>
		<g>
			<path class="st1" d="M16.28,27.44c-0.31,0.05-0.59-0.16-0.64-0.46l-0.62-3.76c-0.05-0.31,0.16-0.59,0.46-0.64l1.62-0.27
				l-0.04-1.28l-0.17,0.03l0.1,0.63c0.02,0.14-0.07,0.27-0.21,0.29c-0.14,0.02-0.27-0.07-0.29-0.21l-0.1-0.63l-0.48,0.08l0.1,0.63
				c0.02,0.14-0.07,0.27-0.21,0.29c-0.14,0.02-0.27-0.07-0.29-0.21l-0.1-0.63l-0.48,0.08l0.1,0.63c0.02,0.14-0.07,0.27-0.21,0.29
				s-0.27-0.07-0.29-0.21l-0.1-0.63l-0.41,0.07c-0.31,0.05-0.51,0.34-0.46,0.64l0.07,0.43l0.61-0.1c0.14-0.02,0.27,0.07,0.29,0.21
				c0.02,0.14-0.07,0.27-0.21,0.29l-0.61,0.1l0.08,0.48l0.61-0.1c0.14-0.02,0.27,0.07,0.29,0.21c0.02,0.14-0.07,0.27-0.21,0.29
				l-0.61,0.1l0.08,0.48l0.61-0.1c0.14-0.02,0.27,0.07,0.29,0.21c0.02,0.14-0.07,0.27-0.21,0.29l-0.61,0.1l0.08,0.48l0.61-0.1
				c0.14-0.02,0.27,0.07,0.29,0.21c0.02,0.14-0.07,0.27-0.21,0.29l-0.61,0.1l0.08,0.48l0.61-0.1c0.14-0.02,0.27,0.07,0.29,0.21
				c0.02,0.14-0.07,0.27-0.21,0.29l-0.61,0.1l0.08,0.48l0.61-0.1c0.14-0.02,0.27,0.07,0.29,0.21c0.02,0.14-0.07,0.27-0.21,0.29
				L14.52,28l0.07,0.43c0.05,0.31,0.34,0.51,0.64,0.46l0.41-0.07l-0.1-0.63c-0.02-0.14,0.07-0.27,0.21-0.29
				c0.14-0.02,0.27,0.07,0.29,0.21l0.1,0.63l0.48-0.08l-0.1-0.63c-0.02-0.14,0.07-0.27,0.21-0.29c0.14-0.02,0.27,0.07,0.29,0.21
				l0.1,0.63l0.48-0.08l-0.1-0.63c-0.02-0.14,0.07-0.27,0.21-0.29c0.14-0.02,0.27,0.07,0.29,0.21l0.1,0.63l0.29-0.05l-0.04-1.28
				L16.28,27.44z"/>
			<path class="st1" d="M13.9,27.59c-0.14,0.02-0.23,0.15-0.21,0.29c0.02,0.14,0.15,0.23,0.29,0.21L14.52,28l-0.08-0.5L13.9,27.59z"
				/>
			<path class="st1" d="M15.34,27.61c-0.02-0.14-0.15-0.23-0.29-0.21l-0.61,0.1l0.08,0.5l0.61-0.1
				C15.27,27.88,15.36,27.75,15.34,27.61z"/>
			<path class="st1" d="M13.74,26.61c-0.14,0.02-0.23,0.15-0.21,0.29c0.02,0.14,0.15,0.23,0.29,0.21l0.55-0.09l-0.08-0.5
				L13.74,26.61z"/>
			<path class="st1" d="M15.18,26.63c-0.02-0.14-0.15-0.23-0.29-0.21l-0.61,0.1l0.08,0.5l0.61-0.1
				C15.11,26.9,15.2,26.77,15.18,26.63z"/>
			<path class="st1" d="M13.57,25.63c-0.14,0.02-0.23,0.15-0.21,0.29l0,0c0.02,0.14,0.15,0.23,0.29,0.21l0.55-0.09l-0.08-0.5
				L13.57,25.63z"/>
			<path class="st1" d="M15.02,25.65c-0.02-0.14-0.15-0.23-0.29-0.21l-0.61,0.1l0.08,0.5l0.61-0.1
				C14.95,25.92,15.04,25.79,15.02,25.65z"/>
			<path class="st1" d="M13.41,24.65c-0.14,0.02-0.23,0.15-0.21,0.29c0.02,0.14,0.15,0.23,0.29,0.21l0.55-0.09l-0.08-0.5
				L13.41,24.65z"/>
			<path class="st1" d="M14.86,24.67c-0.02-0.14-0.15-0.23-0.29-0.21l-0.61,0.1l0.08,0.5l0.61-0.1
				C14.79,24.94,14.88,24.81,14.86,24.67z"/>
			<path class="st1" d="M13.25,23.67c-0.14,0.02-0.23,0.15-0.21,0.29c0.02,0.14,0.15,0.23,0.29,0.21l0.55-0.09l-0.08-0.5
				L13.25,23.67z"/>
			<path class="st1" d="M14.7,23.69c-0.02-0.14-0.15-0.23-0.29-0.21l-0.61,0.1l0.08,0.5l0.61-0.1
				C14.63,23.96,14.72,23.83,14.7,23.69z"/>
			<path class="st1" d="M13.09,22.69c-0.14,0.02-0.23,0.15-0.21,0.29c0.02,0.14,0.15,0.23,0.29,0.21l0.55-0.09l-0.08-0.5
				L13.09,22.69z"/>
			<path class="st1" d="M14.54,22.71c-0.02-0.14-0.15-0.23-0.29-0.21l-0.61,0.1l0.08,0.5l0.61-0.1
				C14.47,22.98,14.56,22.84,14.54,22.71z"/>
			<path class="st1" d="M15.74,29.35c0.02,0.14,0.15,0.23,0.29,0.21c0.14-0.02,0.23-0.15,0.21-0.29l-0.09-0.53l-0.5,0.08
				L15.74,29.35z"/>
			<path class="st1" d="M15.76,27.91c-0.14,0.02-0.23,0.15-0.21,0.29l0.1,0.63l0.5-0.08l-0.1-0.63
				C16.03,27.98,15.89,27.89,15.76,27.91z"/>
			<path class="st1" d="M16.72,29.19c0.02,0.14,0.15,0.23,0.29,0.21c0.14-0.02,0.23-0.15,0.21-0.29l-0.09-0.53l-0.5,0.08
				L16.72,29.19z"/>
			<path class="st1" d="M16.74,27.75c-0.14,0.02-0.23,0.15-0.21,0.29l0.1,0.63l0.5-0.08l-0.1-0.63
				C17.01,27.82,16.88,27.73,16.74,27.75z"/>
			<path class="st1" d="M17.7,29.03c0.02,0.14,0.15,0.23,0.29,0.21c0.14-0.02,0.23-0.15,0.21-0.29l-0.09-0.53l-0.5,0.08L17.7,29.03z
				"/>
			<path class="st1" d="M17.72,27.59c-0.14,0.02-0.23,0.15-0.21,0.29l0.1,0.63l0.5-0.08l-0.1-0.63
				C17.99,27.66,17.86,27.56,17.72,27.59z"/>
			<path class="st1" d="M14.86,20.85c-0.02-0.14-0.15-0.23-0.29-0.21c-0.14,0.02-0.23,0.15-0.21,0.29l0.09,0.53l0.5-0.08
				L14.86,20.85z"/>
			<path class="st1" d="M14.84,22.29c0.14-0.02,0.23-0.15,0.21-0.29l-0.1-0.63l-0.5,0.08l0.1,0.63
				C14.57,22.22,14.7,22.31,14.84,22.29z"/>
			<path class="st1" d="M15.84,20.69c-0.02-0.14-0.15-0.23-0.29-0.21l0,0c-0.14,0.02-0.23,0.15-0.21,0.29l0.09,0.53l0.5-0.08
				L15.84,20.69z"/>
			<path class="st1" d="M15.82,22.13c0.14-0.02,0.23-0.15,0.21-0.29l-0.1-0.63l-0.5,0.08l0.1,0.63
				C15.55,22.06,15.68,22.15,15.82,22.13z"/>
			<path class="st1" d="M16.82,20.52c-0.02-0.14-0.15-0.23-0.29-0.21c-0.14,0.02-0.23,0.15-0.21,0.29l0.09,0.53l0.5-0.08
				L16.82,20.52z"/>
			<path class="st1" d="M16.8,21.97c0.14-0.02,0.23-0.15,0.21-0.29l-0.1-0.63l-0.5,0.08l0.1,0.63C16.53,21.9,16.66,21.99,16.8,21.97
				z"/>
			<path class="st1" d="M17.18,24.59l-0.06-1.85l-1.19,0.2c-0.28,0.05-0.47,0.31-0.42,0.59L16,26.53c0.05,0.28,0.31,0.47,0.59,0.42
				l1.76-0.29l-0.06-2.34L17.18,24.59z"/>
		</g>
		<g>
			<path class="st1" d="M23.72,26.73c0.05-0.13,0.2-0.2,0.33-0.15l0.62,0.23l0.17-0.46l-0.62-0.23c-0.13-0.05-0.2-0.2-0.15-0.33
				c0.05-0.13,0.2-0.2,0.33-0.15l0.62,0.23l0.17-0.46l-0.62-0.23c-0.13-0.05-0.2-0.2-0.15-0.33c0.05-0.13,0.2-0.2,0.33-0.15
				l0.62,0.23l0.17-0.46l-0.62-0.23c-0.13-0.05-0.2-0.2-0.15-0.33c0.05-0.13,0.2-0.2,0.33-0.15l0.62,0.23l0.17-0.46l-0.62-0.23
				c-0.13-0.05-0.2-0.2-0.15-0.33c0.05-0.13,0.2-0.2,0.33-0.15l0.62,0.23l0.17-0.46l-0.62-0.23c-0.13-0.05-0.2-0.2-0.15-0.33
				c0.05-0.13,0.2-0.2,0.33-0.15l0.62,0.23l0.16-0.41c0.11-0.29-0.04-0.61-0.32-0.72l-0.43-0.16l-0.23,0.6
				c-0.05,0.13-0.2,0.2-0.33,0.15c-0.13-0.05-0.2-0.2-0.15-0.33l0.23-0.6l-0.46-0.17l-0.23,0.6c-0.05,0.13-0.2,0.2-0.33,0.15
				c-0.13-0.05-0.2-0.2-0.15-0.33l0.23-0.6l-0.46-0.17l-0.23,0.6c-0.05,0.13-0.2,0.2-0.33,0.15c-0.13-0.05-0.2-0.2-0.15-0.33
				l0.23-0.6l-0.3-0.11L22.6,21l2.03,0.77c0.29,0.11,0.43,0.43,0.32,0.72l-1.36,3.57c-0.11,0.29-0.43,0.43-0.72,0.32l-1.59-0.61
				l-0.61,1.12l0.18,0.07l0.23-0.6c0.05-0.13,0.2-0.2,0.33-0.15c0.13,0.05,0.2,0.2,0.15,0.33l-0.23,0.6l0.46,0.17l0.23-0.6
				c0.05-0.13,0.2-0.2,0.33-0.15c0.13,0.05,0.2,0.2,0.15,0.33l-0.23,0.6l0.46,0.17l0.23-0.6c0.05-0.13,0.2-0.2,0.33-0.15
				c0.13,0.05,0.2,0.2,0.15,0.33l-0.23,0.6l0.43,0.16c0.29,0.11,0.61-0.04,0.72-0.32l0.16-0.41l-0.62-0.23
				C23.74,27,23.67,26.86,23.72,26.73z"/>
			<path class="st1" d="M25.14,27l-0.48-0.18l-0.18,0.47l0.48,0.18c0.13,0.05,0.28-0.02,0.33-0.15S25.27,27.05,25.14,27z"/>
			<path class="st1" d="M24.05,26.58c-0.13-0.05-0.28,0.02-0.33,0.15c-0.05,0.13,0.02,0.28,0.15,0.33l0.62,0.23l0.18-0.47
				L24.05,26.58z"/>
			<path class="st1" d="M25.32,26.54c0.13,0.05,0.28-0.02,0.33-0.15c0.05-0.13-0.02-0.28-0.15-0.33l-0.48-0.18l-0.18,0.47
				L25.32,26.54z"/>
			<path class="st1" d="M24.08,25.8c-0.05,0.13,0.02,0.28,0.15,0.33l0.62,0.23l0.18-0.47l-0.62-0.23
				C24.27,25.6,24.13,25.67,24.08,25.8z"/>
			<path class="st1" d="M25.67,25.61c0.13,0.05,0.28-0.02,0.33-0.15c0.05-0.13-0.02-0.28-0.15-0.33l-0.48-0.18l-0.18,0.47
				L25.67,25.61z"/>
			<path class="st1" d="M24.43,24.87c-0.05,0.13,0.02,0.28,0.15,0.33l0.62,0.23l0.18-0.47l-0.62-0.23
				C24.63,24.68,24.48,24.74,24.43,24.87z"/>
			<path class="st1" d="M26.03,24.69c0.13,0.05,0.28-0.02,0.33-0.15c0.05-0.13-0.02-0.28-0.15-0.33l-0.48-0.18l-0.18,0.47
				L26.03,24.69z"/>
			<path class="st1" d="M24.78,23.94c-0.05,0.13,0.02,0.28,0.15,0.33l0.62,0.23l0.18-0.47l-0.62-0.23
				C24.98,23.75,24.83,23.81,24.78,23.94z"/>
			<path class="st1" d="M26.38,23.76c0.13,0.05,0.28-0.02,0.33-0.15c0.05-0.13-0.02-0.28-0.15-0.33l-0.48-0.18l-0.18,0.47
				L26.38,23.76z"/>
			<path class="st1" d="M25.14,23.01c-0.05,0.13,0.02,0.28,0.15,0.33l0.62,0.23l0.18-0.47l-0.62-0.23
				C25.33,22.82,25.19,22.89,25.14,23.01z"/>
			<path class="st1" d="M26.73,22.83c0.13,0.05,0.28-0.02,0.33-0.15c0.05-0.13-0.02-0.28-0.15-0.33l-0.48-0.18l-0.18,0.47
				L26.73,22.83z"/>
			<path class="st1" d="M25.49,22.09c-0.05,0.13,0.02,0.28,0.15,0.33l0.62,0.23l0.18-0.47l-0.62-0.23
				C25.69,21.89,25.54,21.96,25.49,22.09z"/>
			<path class="st1" d="M20.66,27.47c-0.05,0.13,0.02,0.28,0.15,0.33c0.13,0.05,0.28-0.02,0.33-0.15l0.19-0.5l-0.47-0.18
				L20.66,27.47z"/>
			<path class="st1" d="M21.4,26.23c-0.13-0.05-0.28,0.02-0.33,0.15l-0.23,0.6l0.47,0.18l0.23-0.6
				C21.6,26.43,21.53,26.28,21.4,26.23z"/>
			<path class="st1" d="M21.59,27.83c-0.05,0.13,0.02,0.28,0.15,0.33c0.13,0.05,0.28-0.02,0.33-0.15l0.19-0.5l-0.47-0.18
				L21.59,27.83z"/>
			<path class="st1" d="M22.33,26.58c-0.13-0.05-0.28,0.02-0.33,0.15l-0.23,0.6l0.47,0.18l0.23-0.6
				C22.52,26.78,22.46,26.63,22.33,26.58z"/>
			<path class="st1" d="M22.51,28.18c-0.05,0.13,0.02,0.28,0.15,0.33c0.13,0.05,0.28-0.02,0.33-0.15l0.19-0.5l-0.47-0.18
				L22.51,28.18z"/>
			<path class="st1" d="M23.26,26.94c-0.13-0.05-0.28,0.02-0.33,0.15l-0.23,0.6l0.47,0.18l0.23-0.6
				C23.45,27.13,23.39,26.99,23.26,26.94z"/>
			<path class="st1" d="M24.17,19.67c0.05-0.13-0.02-0.28-0.15-0.33c-0.13-0.05-0.28,0.02-0.33,0.15l-0.19,0.5l0.47,0.18
				L24.17,19.67z"/>
			<path class="st1" d="M23.42,20.91c0.13,0.05,0.28-0.02,0.33-0.15l0.23-0.6l-0.47-0.18l-0.23,0.6
				C23.23,20.72,23.3,20.86,23.42,20.91z"/>
			<path class="st1" d="M25.1,20.02c0.05-0.13-0.02-0.28-0.15-0.33c-0.13-0.05-0.28,0.02-0.33,0.15l-0.19,0.5l0.47,0.18L25.1,20.02z
				"/>
			<path class="st1" d="M24.35,21.27c0.13,0.05,0.28-0.02,0.33-0.15l0.23-0.6l-0.47-0.18l-0.23,0.6
				C24.16,21.07,24.22,21.22,24.35,21.27z"/>
			<path class="st1" d="M26.02,20.38c0.05-0.13-0.02-0.28-0.15-0.33l0,0c-0.13-0.05-0.28,0.02-0.33,0.15l-0.19,0.5l0.47,0.18
				L26.02,20.38z"/>
			<path class="st1" d="M25.28,21.62c0.13,0.05,0.28-0.02,0.33-0.15l0.23-0.6l-0.47-0.18l-0.23,0.6
				C25.09,21.42,25.15,21.57,25.28,21.62z"/>
			<path class="st1" d="M23.33,25.56l1.09-2.86c0.1-0.26-0.03-0.56-0.3-0.66l-1.73-0.66l-0.88,1.63l1.09,0.33l-1.12,2.05l1.18,0.45
				C22.93,25.95,23.23,25.82,23.33,25.56z"/>
		</g>
		<path class="st3" d="M20.73,18.98c-0.29,1.08-0.57,2.12-0.85,3.18c0.51,0,1,0,1.53,0c-0.79,1.82-1.56,3.61-2.33,5.39
			c-0.01-0.01-0.02-0.01-0.02-0.02c0.18-1.21,0.37-2.43,0.55-3.67c-0.55,0-1.09,0-1.64,0c0.01-0.08,0.02-0.13,0.03-0.18
			c0.38-1.52,0.76-3.04,1.15-4.55c0.02-0.06,0.07-0.15,0.1-0.15C19.73,18.97,20.22,18.98,20.73,18.98z"/>
	</g>
	<g>
		<path class="st4" d="M32.56,22.33c-0.91,0.31-1.64,1.06-2.47,1.93l0.13,0.32c0.28-0.3,0.55-0.62,0.84-0.9
			c0.55-0.53,1.28-1.12,2.04-1.28c3.19-0.66,3.27,1.68,2.58,3.05l0.02,0.09C36.98,23.02,35.16,21.44,32.56,22.33z"/>
	</g>
	<g>
		<g>
			<polygon class="st5" points="25.88,28.67 26.27,28.44 26.11,28.28 			"/>
			<path class="st6" d="M26.41,27.26l0.13,0.13l-0.4,0.4c-0.17,0.17-0.17,0.44,0,0.61c0.17,0.17,0.44,0.17,0.61,0l0.4-0.4l0.13,0.13
				c0.04,0.04,0.1,0.04,0.14,0c0.04-0.04,0.04-0.1,0-0.14l-0.13-0.13l3.14-3.16c0.17-0.17,0.17-0.44,0-0.61
				c-0.17-0.17-0.44-0.17-0.61,0l-3.14,3.16l-0.13-0.13c-0.04-0.04-0.1-0.04-0.14,0C26.37,27.16,26.37,27.22,26.41,27.26z"/>
		</g>
	</g>
</g>
<g>
	<g>
		<path class="st0" d="M53.97,14.96L53.97,14.96 M53.97,14.96l-6.49,17.19h-5.84l-0.47-17.19h4.52l-0.46,13.62h0.02l4.23-13.62
			H53.97 M53.97,12.52L53.97,12.52h-4.48c-0.75,0-1.44,0.34-1.89,0.9c-0.04-0.05-0.09-0.1-0.14-0.15c-0.46-0.48-1.1-0.75-1.76-0.75
			h-4.52c-0.66,0-1.29,0.27-1.75,0.74c-0.46,0.47-0.71,1.11-0.69,1.77l0.47,17.19c0.04,1.32,1.12,2.38,2.44,2.38h5.84
			c1.02,0,1.93-0.63,2.29-1.58l6.45-17.1c0.12-0.29,0.19-0.61,0.19-0.95C56.42,13.61,55.32,12.52,53.97,12.52L53.97,12.52z
			 M53.97,17.41L53.97,17.41L53.97,17.41L53.97,17.41z"/>
		<g>
			<path class="st3" d="M52.59,33.39c-0.35,0-0.69-0.15-0.92-0.41l-1.02-1.16c-0.25-0.28-0.35-0.65-0.29-1.02l1.84-10.43
				c0.05-0.28,0.2-0.54,0.42-0.72l1.44-1.2c0.22-0.18,0.5-0.29,0.79-0.29h8.4c0.35,0,0.69,0.15,0.92,0.42l1.06,1.2
				c0.24,0.28,0.35,0.65,0.29,1.02l-1.84,10.43c-0.05,0.3-0.21,0.56-0.45,0.75l-1.47,1.16c-0.22,0.17-0.48,0.26-0.76,0.26H52.59z
				 M57.68,27.47l0.62-3.51h-0.08l-0.62,3.51H57.68z"/>
			<path class="st0" d="M63.25,19.37l1.06,1.2l-1.84,10.43l-1.47,1.16h-8.4l-1.02-1.16l1.84-10.43l1.44-1.2H63.25 M56.14,28.69h2.56
				l1.05-5.95h-2.56L56.14,28.69 M63.25,16.92h-8.4c-0.57,0-1.13,0.2-1.57,0.57l-1.44,1.2c-0.44,0.37-0.74,0.88-0.84,1.45
				l-1.84,10.43c-0.13,0.73,0.08,1.48,0.57,2.04l1.02,1.16c0.46,0.53,1.13,0.83,1.83,0.83h8.4c0.55,0,1.08-0.18,1.51-0.52l1.47-1.16
				c0.47-0.37,0.79-0.91,0.9-1.5L66.71,21c0.13-0.73-0.08-1.48-0.57-2.04l-1.06-1.2C64.62,17.23,63.95,16.92,63.25,16.92
				L63.25,16.92z"/>
		</g>
		<g>
			<path class="st3" d="M64.78,33.39c-0.35,0-0.68-0.15-0.92-0.41l-1.02-1.16c-0.25-0.28-0.35-0.65-0.29-1.02l2.83-16.03
				c0.1-0.58,0.61-1.01,1.2-1.01h4.12c0.36,0,0.7,0.16,0.94,0.44c0.23,0.28,0.33,0.64,0.27,1l-2.27,12.9
				c0.09,0.06,0.16,0.13,0.23,0.21c0.23,0.28,0.33,0.64,0.27,1l-0.54,3.08c-0.1,0.58-0.61,1.01-1.2,1.01H64.78z"/>
			<path class="st0" d="M70.71,14.98L70.71,14.98 M70.71,14.98l-2.49,14.11h0.71l-0.54,3.08h-3.61l-1.02-1.16l2.83-16.03H70.71
				 M70.71,12.53L70.71,12.53h-4.13c-1.19,0-2.2,0.85-2.41,2.02l-2.83,16.03c-0.13,0.73,0.08,1.48,0.57,2.04l1.02,1.16
				c0.46,0.53,1.13,0.83,1.83,0.83h3.61c1.19,0,2.2-0.85,2.41-2.02l0.54-3.08c0.11-0.63-0.03-1.28-0.39-1.81l2.15-12.2
				c0.04-0.17,0.06-0.34,0.06-0.52C73.16,13.63,72.06,12.53,70.71,12.53L70.71,12.53z M70.71,17.42L70.71,17.42L70.71,17.42
				L70.71,17.42z"/>
		</g>
		<g>
			<path class="st3" d="M70.93,33.39c-0.37,0-0.71-0.16-0.94-0.45l-0.96-1.16c-0.23-0.28-0.32-0.64-0.26-0.99l1.21-6.89
				c-0.22-0.07-0.43-0.2-0.58-0.38c-0.23-0.28-0.33-0.64-0.27-1l0.59-3.37c0.1-0.58,0.61-1.01,1.2-1.01h0.11l0.34-1.91
				c0.1-0.58,0.61-1.01,1.2-1.01h4.1c0.36,0,0.7,0.16,0.94,0.44c0.23,0.28,0.33,0.64,0.27,1l-0.26,1.49h0.73
				c0.36,0,0.7,0.16,0.94,0.44c0.23,0.28,0.33,0.64,0.27,1l-0.59,3.37c-0.1,0.58-0.61,1.01-1.2,1.01h-1.16l-0.62,3.51h0.73
				c0.36,0,0.7,0.16,0.94,0.44c0.23,0.28,0.33,0.64,0.27,1l-0.61,3.48c-0.1,0.58-0.61,1.01-1.2,1.01H70.93z"/>
			<path class="st0" d="M76.69,16.45l-0.51,2.92h2.18l-0.59,3.37h-2.18l-1.05,5.95h2.18l-0.61,3.48h-5.17l-0.96-1.16l1.46-8.27
				h-1.09l0.59-3.37h1.14l0.51-2.92H76.69 M78.36,19.37L78.36,19.37 M76.69,14h-4.1c-1.19,0-2.2,0.85-2.41,2.02l-0.19,1.09
				c-0.75,0.31-1.31,0.99-1.46,1.83l-0.59,3.37c-0.13,0.71,0.07,1.44,0.53,2c0.05,0.06,0.11,0.13,0.17,0.19l-1.07,6.09
				c-0.12,0.7,0.07,1.43,0.52,1.98l0.96,1.16c0.46,0.56,1.16,0.89,1.89,0.89h5.17c1.19,0,2.2-0.85,2.41-2.02l0.61-3.48
				c0.13-0.71-0.07-1.44-0.53-2c-0.31-0.37-0.71-0.63-1.16-0.77l0.21-1.17h0.13c1.19,0,2.2-0.85,2.41-2.02l0.58-3.27
				c0.04-0.17,0.06-0.34,0.06-0.52c0-1.1-0.73-2.04-1.74-2.34l0.03-0.15c0.13-0.71-0.07-1.44-0.53-2C78.1,14.32,77.42,14,76.69,14
				L76.69,14z"/>
		</g>
		<g>
			<path class="st3" d="M77.84,33.39c-0.39,0-0.76-0.19-0.99-0.5l-0.84-1.16c-0.2-0.27-0.27-0.6-0.22-0.93l1.01-5.73
				c0.1-0.55,0.56-0.97,1.12-1.01l4.4-0.29c0.03,0,0.05,0,0.08,0c0.28,0,0.56,0.1,0.78,0.28l1.64-9.28c0.1-0.58,0.61-1.01,1.2-1.01
				h4.41c0.36,0,0.7,0.16,0.94,0.44c0.23,0.28,0.33,0.64,0.27,1l-2.83,16.03c-0.05,0.28-0.19,0.53-0.4,0.71l-1.34,1.16
				c-0.22,0.19-0.51,0.3-0.8,0.3H77.84z"/>
			<path class="st0" d="M90.44,14.98L90.44,14.98 M90.44,14.98l-2.83,16.03l-1.34,1.16h-8.43L77,31.01l1.01-5.73l4.4-0.29
				l-0.59,3.37h1.85l2.36-13.38H90.44 M90.44,12.53L90.44,12.53h-4.42c-1.19,0-2.2,0.85-2.41,2.02l-1.41,8l-4.36,0.29
				c-1.12,0.07-2.05,0.91-2.25,2.02l-1.01,5.73c-0.12,0.65,0.04,1.33,0.43,1.86l0.84,1.16c0.46,0.63,1.2,1.01,1.98,1.01h8.43
				c0.59,0,1.15-0.21,1.6-0.6l1.34-1.16c0.43-0.37,0.71-0.87,0.81-1.43l2.81-15.93c0.04-0.17,0.06-0.34,0.06-0.52
				C92.89,13.63,91.79,12.53,90.44,12.53L90.44,12.53z M90.44,17.42L90.44,17.42L90.44,17.42L90.44,17.42z"/>
		</g>
		<g>
			<path class="st3" d="M89.95,33.39c-0.35,0-0.68-0.15-0.92-0.41l-1.02-1.16c-0.25-0.28-0.35-0.65-0.29-1.02l1.84-10.43
				c0.05-0.28,0.2-0.54,0.42-0.73l1.44-1.2c0.22-0.18,0.5-0.28,0.78-0.28h8.4c0.35,0,0.69,0.15,0.92,0.42l1.06,1.2
				c0.24,0.28,0.35,0.65,0.29,1.02l-1.84,10.43c-0.05,0.3-0.21,0.56-0.45,0.75l-1.47,1.16c-0.22,0.17-0.48,0.26-0.76,0.26H89.95z
				 M95.04,27.47l0.62-3.51h-0.08l-0.62,3.51H95.04z"/>
			<path class="st0" d="M100.61,19.37l1.06,1.2l-1.84,10.43l-1.47,1.16h-8.4l-1.02-1.16l1.84-10.43l1.44-1.2H100.61 M93.51,28.69
				h2.56l1.05-5.95h-2.56L93.51,28.69 M100.61,16.92h-8.4c-0.57,0-1.13,0.2-1.57,0.57l-1.44,1.2c-0.44,0.37-0.74,0.88-0.84,1.45
				l-1.84,10.43c-0.13,0.73,0.08,1.48,0.57,2.04l1.02,1.16c0.46,0.53,1.13,0.83,1.83,0.83h8.4c0.55,0,1.08-0.18,1.51-0.52l1.47-1.16
				c0.47-0.37,0.79-0.91,0.9-1.5L104.08,21c0.13-0.73-0.08-1.48-0.57-2.04l-1.06-1.2C101.98,17.23,101.31,16.92,100.61,16.92
				L100.61,16.92z"/>
		</g>
		<g>
			<path class="st3" d="M102.14,33.39c-0.35,0-0.68-0.15-0.92-0.41l-1.02-1.16c-0.25-0.28-0.35-0.65-0.29-1.02l1.84-10.43
				c0.05-0.28,0.2-0.54,0.42-0.73l1.44-1.2c0.22-0.18,0.5-0.28,0.78-0.28h8.4c0.36,0,0.7,0.16,0.94,0.44l1.01,1.2
				c0.23,0.28,0.33,0.64,0.27,1l-0.61,3.48c-0.1,0.55-0.56,0.97-1.12,1.01l-0.03,0c0.17,0.07,0.32,0.19,0.44,0.33
				c0.23,0.28,0.33,0.64,0.27,1l-0.81,4.61c-0.05,0.29-0.2,0.55-0.43,0.73l-1.41,1.16c-0.22,0.18-0.49,0.28-0.78,0.28H102.14z
				 M107.43,25.92c0.13-0.31,0.39-0.56,0.71-0.67c-0.03-0.03-0.06-0.05-0.08-0.08c-0.25-0.28-0.36-0.66-0.29-1.03l0.02-0.13h-0.01
				L107.43,25.92z"/>
			<path class="st0" d="M112.8,19.37l1.01,1.2l-0.61,3.48l-4.24,0.29l0.28-1.56h-2.5l-1.05,5.93h2.45l0.41-2.32h4.21l-0.81,4.61
				l-1.41,1.16h-8.4l-1.02-1.16l1.84-10.43l1.44-1.2H112.8 M112.77,26.39L112.77,26.39 M112.8,16.92h-8.4
				c-0.57,0-1.13,0.2-1.57,0.57l-1.44,1.2c-0.44,0.37-0.74,0.88-0.84,1.45l-1.84,10.43c-0.13,0.73,0.08,1.48,0.57,2.04l1.02,1.16
				c0.46,0.53,1.13,0.83,1.83,0.83h8.4c0.57,0,1.12-0.2,1.55-0.56l1.41-1.16c0.45-0.37,0.75-0.89,0.85-1.46l0.8-4.52
				c0.04-0.17,0.06-0.34,0.06-0.52c0-0.27-0.04-0.54-0.13-0.78c0.26-0.32,0.45-0.71,0.52-1.13l0.61-3.48c0.13-0.71-0.07-1.45-0.54-2
				l-1.01-1.2C114.21,17.24,113.53,16.92,112.8,16.92L112.8,16.92z"/>
		</g>
		<g>
			<path class="st3" d="M120.53,33.39c-0.52,0-0.98-0.33-1.15-0.82l-0.65-1.85l-0.29,1.65c-0.1,0.58-0.61,1.01-1.2,1.01h-4.17
				c-0.36,0-0.7-0.16-0.94-0.44c-0.23-0.28-0.33-0.64-0.27-1l3.03-17.19c0.1-0.58,0.61-1.01,1.2-1.01h4.17
				c0.36,0,0.7,0.16,0.94,0.44c0.23,0.28,0.33,0.64,0.27,1l-0.85,4.84l1.13-1.42c0.23-0.29,0.59-0.46,0.96-0.46h4.41
				c0.47,0,0.91,0.27,1.11,0.7c0.2,0.43,0.14,0.94-0.17,1.3l-4.05,4.86l2.41,6.74c0.13,0.37,0.08,0.79-0.15,1.12
				c-0.23,0.32-0.6,0.52-1,0.52H120.53z"/>
			<path class="st0" d="M120.27,14.98l-1.69,9.61l4.13-5.22h4.41l-4.5,5.39l2.64,7.4h-4.73l-2.2-6.24l-1.1,6.24h-4.17l3.03-17.19
				H120.27 M127.12,19.37L127.12,19.37 M120.27,12.53h-4.17c-1.19,0-2.2,0.85-2.41,2.02l-3.03,17.19c-0.13,0.71,0.07,1.44,0.53,2
				c0.46,0.55,1.15,0.87,1.87,0.87h4.17c0.63,0,1.21-0.24,1.65-0.64c0.44,0.4,1.02,0.64,1.65,0.64h4.73c0.8,0,1.54-0.39,2-1.04
				c0.46-0.65,0.57-1.48,0.3-2.23l-2.17-6.09l3.57-4.28c0.38-0.43,0.61-0.99,0.61-1.61c0-1.35-1.09-2.45-2.44-2.45h0h-4.41
				c-0.1,0-0.2,0.01-0.3,0.02l0.27-1.54c0.13-0.71-0.07-1.44-0.53-2C121.67,12.85,120.99,12.53,120.27,12.53L120.27,12.53z
				 M120.27,17.42L120.27,17.42L120.27,17.42L120.27,17.42z"/>
		</g>
		<g>
			<path class="st3" d="M126.75,33.39c-0.35,0-0.69-0.15-0.92-0.41l-1.02-1.16c-0.25-0.28-0.35-0.65-0.29-1.02l1.84-10.43
				c0.05-0.28,0.2-0.54,0.42-0.72l1.44-1.2c0.22-0.18,0.5-0.29,0.79-0.29h8.63c0.36,0,0.7,0.16,0.94,0.44l1.01,1.2
				c0.23,0.28,0.33,0.64,0.27,1l-1.26,7.13c-0.04,0.25-0.16,0.47-0.33,0.64c0.03,0.15,0.03,0.3,0,0.45l-0.59,3.37
				c-0.1,0.58-0.61,1.01-1.2,1.01H126.75z"/>
			<path class="st0" d="M137.64,19.37l1.01,1.2l-1.26,7.13h-7l-0.19,1.09h6.87l-0.59,3.37h-9.72l-1.02-1.16l1.84-10.43l1.44-1.2
				H137.64 M130.91,24.79h2.79l0.4-2.25h-2.79L130.91,24.79 M137.64,16.92h-8.63c-0.57,0-1.13,0.2-1.57,0.57L126,18.7
				c-0.44,0.37-0.74,0.88-0.84,1.45l-1.84,10.43c-0.13,0.73,0.08,1.48,0.57,2.04l1.02,1.16c0.46,0.53,1.13,0.83,1.83,0.83h9.72
				c1.19,0,2.2-0.85,2.41-2.02l0.59-3.37c0.02-0.1,0.03-0.19,0.03-0.29c0.14-0.24,0.24-0.51,0.29-0.8l1.26-7.13
				c0.13-0.71-0.07-1.45-0.54-2l-1.01-1.2C139.04,17.24,138.36,16.92,137.64,16.92L137.64,16.92z"/>
		</g>
		<g>
			<path class="st3" d="M137.26,37.62c-0.36,0-0.7-0.16-0.94-0.44c-0.23-0.28-0.33-0.64-0.27-1l0.57-3.23
				c0.07-0.39,0.31-0.7,0.64-0.87l-0.24-0.27c-0.25-0.28-0.35-0.65-0.29-1.02l2.05-11.64c0.1-0.58,0.61-1.01,1.2-1.01h4.19
				c0.36,0,0.7,0.16,0.94,0.44c0.23,0.28,0.33,0.64,0.27,1L144,27.49h0.04l1.47-8.33c0.1-0.58,0.61-1.01,1.2-1.01h4.1
				c0.36,0,0.7,0.16,0.94,0.44c0.23,0.28,0.33,0.64,0.27,1l-2.79,15.81c-0.05,0.27-0.19,0.52-0.4,0.71l-1.4,1.23
				c-0.22,0.2-0.51,0.3-0.81,0.3H137.26z"/>
			<path class="st0" d="M150.81,19.37L150.81,19.37 M150.81,19.37l-2.79,15.81l-1.4,1.23h-9.36l0.57-3.23h6.42l0.33-1.89l-1.05,0.89
				h-4.57l-1.02-1.16L140,19.37h4.19l-1.65,9.34h2.52l1.65-9.34H150.81 M150.82,16.92L150.82,16.92h-4.1
				c-0.46,0-0.89,0.13-1.26,0.35c-0.38-0.23-0.81-0.35-1.26-0.35H140c-1.19,0-2.2,0.85-2.41,2.02l-2.05,11.64
				c-0.08,0.47-0.02,0.96,0.16,1.39c-0.13,0.24-0.23,0.5-0.28,0.77l-0.57,3.23c-0.13,0.71,0.07,1.44,0.54,2
				c0.46,0.55,1.15,0.87,1.87,0.87h9.36c0.59,0,1.17-0.22,1.61-0.61l1.4-1.23c0.42-0.37,0.7-0.87,0.8-1.41l2.77-15.71
				c0.04-0.17,0.06-0.34,0.06-0.52C153.26,18.02,152.17,16.92,150.82,16.92L150.82,16.92z M150.81,21.82L150.81,21.82L150.81,21.82
				L150.81,21.82z"/>
		</g>
	</g>
	<g>
		<g>
			<polygon class="st3" points="49.49,14.98 45.26,28.6 45.24,28.6 45.7,14.98 41.17,14.98 41.64,32.17 47.48,32.17 53.97,14.98 			
				"/>
		</g>
		<g>
			<path class="st3" d="M63.25,19.37h-8.4l-1.44,1.2l-1.84,10.43l1.02,1.16h8.4l1.47-1.16l1.84-10.43L63.25,19.37z M58.71,28.69
				h-2.56l1.05-5.95h2.56L58.71,28.69z"/>
		</g>
		<g>
			<polygon class="st3" points="70.71,14.98 66.59,14.98 63.76,31.01 64.78,32.17 68.39,32.17 68.94,29.09 68.22,29.09 			"/>
		</g>
		<g>
			<polygon class="st3" points="75.58,22.74 77.77,22.74 78.36,19.37 76.18,19.37 76.69,16.45 72.59,16.45 72.08,19.37 70.94,19.37 
				70.35,22.74 71.44,22.74 69.98,31.01 70.93,32.17 76.11,32.17 76.72,28.69 74.53,28.69 			"/>
		</g>
		<g>
			<polygon class="st3" points="86.02,14.98 83.67,28.35 81.82,28.35 82.41,24.99 78.01,25.28 77,31.01 77.85,32.17 86.27,32.17 
				87.61,31.01 90.44,14.98 			"/>
		</g>
		<g>
			<path class="st3" d="M100.61,19.37h-8.4l-1.44,1.2l-1.84,10.43l1.02,1.16h8.4l1.47-1.16l1.84-10.43L100.61,19.37z M96.07,28.69
				h-2.56l1.05-5.95h2.56L96.07,28.69z"/>
		</g>
		<g>
			<polygon class="st3" points="108.15,28.71 105.7,28.71 106.74,22.78 109.24,22.78 108.96,24.34 113.2,24.05 113.82,20.57 
				112.8,19.37 104.4,19.37 102.96,20.57 101.12,31.01 102.14,32.17 110.55,32.17 111.96,31.01 112.77,26.39 108.56,26.39 			"/>
		</g>
		<g>
			<polygon class="st3" points="127.12,19.37 122.7,19.37 118.57,24.59 120.27,14.98 116.1,14.98 113.07,32.17 117.24,32.17 
				118.34,25.92 120.53,32.17 125.26,32.17 122.62,24.76 			"/>
		</g>
		<g>
			<path class="st3" d="M130.39,27.71h7l1.26-7.13l-1.01-1.2h-8.63l-1.44,1.2l-1.84,10.43l1.02,1.16h9.72l0.59-3.37h-6.87
				L130.39,27.71z M131.31,22.54h2.79l-0.4,2.25h-2.79L131.31,22.54z"/>
		</g>
		<g>
			<polygon class="st3" points="146.71,19.37 145.06,28.71 142.54,28.71 144.19,19.37 140,19.37 137.95,31.01 138.97,32.17 
				143.54,32.17 144.59,31.27 144.25,33.17 137.83,33.17 137.26,36.4 146.63,36.4 148.03,35.18 150.81,19.37 			"/>
		</g>
	</g>
</g>
</svg>
